# xmcd
# Copyright (C) 1995-1998 Ti Kan
#
# Track frame offsets:
#       150
#       4447
#       16432
#       26068
#       31245
#       35564
#       47098
#       55425
#       59914
#       66314
#       76605
#       86803
#       92257
#       95157
#       104723
#       116425
#       122270
#       142954
#       151202
#       163522
#       169792
#       181313
#       193483
#       202566
#       209408
#       217123
#       222616
#       226654
#       232622
#       244570
#       251235
#       259855
#       265739
#       280297
#
# Disc length: 3962 seconds
#
# Revision: 1
# Processed by: cddbd v1.5.2PL0 Copyright (c) Steve Scherf et al.
# Submitted via: CD-Transfer v1.0
#
DISCID=e70f7822
DTITLE=Michael Mittermeier - 
DYEAR=1900
DGENRE=
TTITLE0=Back To Life
TTITLE1=Odysseus Und Die Pantomimen
TTITLE2=Jamaikanische Fussballkiffer
TTITLE3=Lauschangriff Der Inkas
TTITLE4=Die Braune Plastiktüte Des Lebens
TTITLE5=Die Elternlüge
TTITLE6=Catholic Marines Und Latin Lovers
TTITLE7=Die Wahrheit Über Männer Und Frauen
TTITLE8=Ode An Die Frauenbrust
TTITLE9=Ein Schweinchen Namens Michl
TTITLE10=Sinn Für Humor
TTITLE11=Der Fahrstuhl Des Grauens
TTITLE12=Heuschnupfenkokser
TTITLE13=Arschlochkinder (Einmal Ak Immer Ak)
TTITLE14=Der Exorzist 6 - Wenn Der Zeuge Zweimal Klingelt
TTITLE15=Die Verlorene Ehe Der Turnbeutelvergesser
TTITLE16=Echte Männer Auf Dem Mond
TTITLE17=Aliens Und Die Fizzz-Strahlen Des Todes
TTITLE18=Pflanzentalk
TTITLE19=Pausenhofduell
TTITLE20=Hunde Wollt Ihr Ewig Lecken?
TTITLE21=Echte Frauen Auf Dem Mars
TTITLE22=German Rhythm Disaster
TTITLE23=Trau Keinem Über 30
TTITLE24=You Can Scratch My Plattennadel
TTITLE25=Freddy Kruegers Nagelstudio
TTITLE26=O-Sex Und Zungenpiercing
TTITLE27=Requiescem In Duplex (Parke Sanft)
TTITLE28=The Amazing Back To Life Machine
TTITLE29=Genie Und Wahnsinn - Die Eier Des Pythagoras
TTITLE30=Der G-Punkt Des Lebens
TTITLE31=Kurz Davor!
TTITLE32=Worldcup Religion - Schneller, Höher, Gläubiger
TTITLE33=Mars
EXTD=
EXTT0=
EXTT1=
EXTT2=
EXTT3=
EXTT4=
EXTT5=
EXTT6=
EXTT7=
EXTT8=
EXTT9=
EXTT10=
EXTT11=
EXTT12=
EXTT13=
EXTT14=
EXTT15=
EXTT16=
EXTT17=
EXTT18=
EXTT19=
EXTT20=
EXTT21=
EXTT22=
EXTT23=
EXTT24=
EXTT25=
EXTT26=
EXTT27=
EXTT28=
EXTT29=
EXTT30=
EXTT31=
EXTT32=
EXTT33=
PLAYORDER=
